<svg width="46" height="70" viewBox="0 0 46 70" fill="none" xmlns="http://www.w3.org/2000/svg">
<path d="M26.4446 31.3174C26.4351 31.2632 26.4223 31.2121 26.4127 31.1611C25.7554 27.9352 25.0758 24.6009 23.5155 21.9015C23.2954 21.5122 22.737 20.8613 21.4894 20.8613H21.4862C19.2016 20.8613 15.3855 23.1746 14.1985 25.2773C13.6242 26.2952 13.7965 27.0354 14.055 27.4821C14.4347 28.2096 14.9803 29.1349 15.612 30.207C17.1085 32.7437 18.9719 35.8993 19.9961 38.7327C21.3426 42.4627 21.3107 49.409 20.4971 51.0873C18.9942 51.7638 9.71553 52.1722 6.6205 52.3094C5.94725 52.3381 5.39206 52.3636 4.99321 52.3828C4.50184 52.4115 3.81902 52.6859 3.34998 53.8346C2.5491 55.7969 2.55229 60.1842 4.19553 61.9901C4.8943 62.7559 5.82281 63.0207 6.81832 62.7272C7.68302 62.5007 9.02632 62.1082 10.5802 61.6551C14.1028 60.6309 20.6279 58.726 21.7606 58.8313C24.2558 59.7885 30.0917 65.4808 33.1963 68.8598L33.2792 68.9396C33.8663 69.4373 34.5874 69.6894 35.3883 69.6894C35.8988 69.6894 36.4445 69.5873 37.006 69.3799C39.4182 68.4865 41.923 65.7648 42.258 63.6685C42.4048 62.7527 42.1368 61.971 41.5178 61.4764C41.1476 61.1733 40.5095 60.6915 39.7724 60.1331C39.0194 59.5652 38.1834 58.9302 37.4049 58.3176C37.1688 56.3106 36.9295 54.1217 36.738 52.4753C36.5051 50.4237 36.3455 49.1505 36.2562 48.4805C36.1605 47.8009 36.0648 47.2138 35.9052 46.6107C35.7361 46.014 35.4266 45.5354 35.0661 45.1653C36.5657 44.977 38.0111 44.4282 39.2906 43.538C41.3231 42.1213 42.6983 40.0218 43.1674 37.6255C43.6364 35.2165 43.1355 32.8011 41.7539 30.8165C40.3723 28.835 38.276 27.5236 35.8542 27.1312C33.4452 26.7387 30.9978 27.3035 28.9653 28.7202C27.9571 29.4221 27.1019 30.3091 26.4446 31.3142M40.3563 62.9123C40.3882 62.9378 40.4903 63.0176 40.4329 63.3749C40.2255 64.6704 38.2664 66.9422 36.3615 67.6473C35.5734 67.9377 34.948 67.909 34.5045 67.5612C34.3226 67.3634 33.5983 66.588 32.5741 65.5414C33.7674 65.6691 34.8523 65.5478 35.6914 65.2926C36.1892 65.1394 36.6008 64.9256 36.8752 64.7246C37.1496 64.5268 37.29 64.3736 37.29 64.3736C37.29 64.3736 37.3187 64.3417 37.373 64.2811C37.4272 64.2205 37.5102 64.1311 37.5963 63.9875C37.6889 63.8535 37.7814 63.6653 37.8612 63.4387C37.8899 63.3207 37.925 63.1962 37.9473 63.0622C37.9537 62.9952 37.9569 62.9282 37.9633 62.858C37.9633 62.7719 37.9856 62.6857 37.9633 62.5932C37.9314 62.3922 37.8963 62.1752 37.8612 61.9391C37.8293 61.7221 37.7973 61.4924 37.7622 61.2467C37.7495 61.135 37.7335 61.0201 37.7176 60.9021C38.0366 61.1446 38.3525 61.3839 38.6525 61.6104C39.3736 62.1561 39.999 62.6315 40.3531 62.9186M36.0201 61.4796C36.0552 61.7285 36.0903 61.9678 36.1222 62.1911C36.1541 62.3922 36.1828 62.5804 36.2115 62.7495C36.2115 62.7495 36.2083 62.7495 36.2115 62.7559C36.2115 62.7719 36.2115 62.791 36.2115 62.8102C36.2052 62.8421 36.1924 62.8676 36.1924 62.8995C36.1669 62.9505 36.1573 62.9952 36.1254 63.0303C36.1062 63.0686 36.0775 63.0973 36.0584 63.1165C36.0424 63.1388 36.0329 63.1484 36.0329 63.1484C36.0329 63.1484 36.0265 63.1611 35.9946 63.1867C35.9595 63.209 35.9339 63.2505 35.8637 63.292C35.7425 63.3813 35.516 63.5089 35.1745 63.6142C34.5013 63.8248 33.3718 63.9333 32.2263 63.7131C31.9423 63.6621 31.6615 63.5823 31.3999 63.4834C31.1414 63.3877 30.9021 63.2632 30.7426 63.1292C30.666 63.0654 30.599 63.0016 30.5735 62.9505C30.5671 62.9378 30.5543 62.925 30.548 62.9154C30.548 62.9059 30.5416 62.8963 30.5384 62.8867C30.5224 62.874 30.5352 62.8421 30.5192 62.8197C30.5001 62.6857 30.4714 62.5102 30.4618 62.3634C30.4522 62.2135 30.4363 62.0667 30.4363 61.9104C30.4171 61.2977 30.449 60.6596 30.4714 60.0725C30.4937 59.479 30.5129 58.9334 30.532 58.4707C30.5767 56.9104 30.5703 56.1574 30.5703 55.6948C30.5448 52.9699 30.1651 51.4383 29.4918 49.2175C29.0483 51.4989 28.8186 53.0241 28.8154 55.698C28.8154 56.1511 28.8154 56.8849 28.7707 58.4133C28.7516 58.8728 28.7324 59.4088 28.7101 59.9991C28.6877 60.5256 28.6622 61.0999 28.6686 61.7285C26.4095 59.6545 23.991 57.689 22.3892 57.0891C21.4575 56.7318 18.8538 57.3221 10.0729 59.8778C8.52219 60.3277 7.18207 60.717 6.3429 60.9404L6.31419 60.9499C6.09402 61.0169 5.7239 61.1254 5.3091 60.366C4.33273 58.5665 4.64542 54.8811 5.22614 54.2143C5.60584 54.1951 6.10998 54.1728 6.70984 54.1473C20.194 53.5538 21.5213 52.9763 22.0063 52.1754C23.3464 50.0216 23.1933 42.1277 21.7383 38.0946C20.6566 35.1017 18.7454 31.863 17.2106 29.2594C16.5884 28.2032 16.0492 27.2875 15.6918 26.6015L15.6727 26.5728C15.5833 25.9665 17.7594 23.8192 20.2929 22.9481C21.365 22.578 21.8627 22.6992 21.9265 22.8141C23.34 25.2614 23.9878 28.4457 24.6163 31.5248C24.8078 32.4629 24.9897 33.3563 25.1907 34.2274C24.5812 36.7353 25.0599 39.3517 26.5148 41.4385C27.9092 43.4423 30.0279 44.7537 32.4784 45.1334C32.807 45.1844 33.1357 45.21 33.4675 45.2259C33.6366 45.4206 33.7898 45.6216 33.9174 45.829C34.1344 46.1895 34.2779 46.5628 34.3258 46.9521C34.3864 47.4882 34.4534 48.0625 34.53 48.707C34.613 49.3611 34.7661 50.6215 34.9959 52.6699C35.2256 54.6833 35.5351 57.5103 35.8255 59.8428C35.902 60.4267 35.9722 60.9787 36.0392 61.4796M30.0183 30.2358C31.6551 29.0967 33.6206 28.6404 35.5574 28.9531C37.4815 29.2658 39.1438 30.2996 40.2351 31.8694C41.3295 33.4393 41.7252 35.3569 41.3518 37.2682C40.9753 39.1922 39.8681 40.8801 38.2313 42.0192C36.6136 43.1455 34.664 43.605 32.7464 43.3083C30.8 43.0083 29.1185 41.9682 28.0145 40.3824C26.8275 38.6785 26.4638 36.5279 27.019 34.4763C27.4784 32.766 28.5442 31.26 30.0183 30.2326" fill="#3C2052"/>
<path d="M11.186 20.389C11.2435 20.373 11.2817 20.3379 11.3137 20.2901C11.3488 20.2454 11.3934 20.2103 11.4349 20.172C12.1113 19.5466 13.0175 18.7106 13.9205 17.8747C14.8235 17.0387 15.7265 16.2027 16.4061 15.5741C16.4476 15.5358 16.4859 15.4944 16.5337 15.4656C16.5816 15.4369 16.6231 15.4018 16.6454 15.3476C16.6933 15.2455 16.7379 15.1466 16.7794 15.054C16.8656 14.8722 16.9326 14.703 16.99 14.5658C17.1017 14.2883 17.1527 14.1191 17.1527 14.1191C17.1527 14.1191 16.9772 14.1574 16.6933 14.2468C16.5529 14.2914 16.3774 14.3457 16.1891 14.4191C16.0934 14.4542 15.9913 14.4925 15.886 14.5307C15.8318 14.5499 15.7935 14.5882 15.7616 14.636C15.7265 14.6807 15.685 14.7158 15.6403 14.7573C14.9639 15.3827 14.0577 16.2187 13.1547 17.0546C12.2517 17.8906 11.3488 18.7266 10.6691 19.352C10.6276 19.3903 10.5862 19.4317 10.5415 19.4637C10.4936 19.4924 10.4522 19.5275 10.433 19.5849C10.3851 19.6902 10.3405 19.7859 10.299 19.8784C10.2128 20.0603 10.1458 20.2294 10.0884 20.3666C9.97673 20.641 9.92249 20.8102 9.92249 20.8102C9.92249 20.8102 10.0948 20.7687 10.3788 20.6793C10.5192 20.6347 10.6915 20.5804 10.8797 20.507C10.9754 20.4719 11.0775 20.4336 11.1828 20.3954" fill="#3C2052"/>
<path d="M21.0337 9.66453C20.9731 9.70601 20.922 9.75388 20.8901 9.81769C20.8199 9.94213 20.7529 10.0634 20.6891 10.1751C20.5615 10.3952 20.4562 10.5994 20.37 10.7653C20.1977 11.0972 20.1084 11.2982 20.1084 11.2982C20.1084 11.2982 20.3158 11.2248 20.6572 11.078C20.8295 11.0047 21.0369 10.9153 21.2698 10.8036C21.3847 10.7494 21.5091 10.6888 21.64 10.6281C21.707 10.5994 21.7612 10.5548 21.8059 10.4941C21.8537 10.4399 21.9112 10.392 21.9654 10.341C22.8493 9.51776 24.0266 8.42333 25.204 7.3289C26.3814 6.23448 27.562 5.13686 28.4426 4.31364C28.5001 4.26259 28.5511 4.20835 28.6086 4.16687C28.6692 4.12539 28.7234 4.08072 28.7585 4.0169C28.8287 3.89246 28.8957 3.77121 28.9595 3.65954C29.0872 3.43938 29.1925 3.23517 29.2754 3.06925C29.4477 2.73741 29.5307 2.5332 29.5307 2.5332C29.5307 2.5332 29.3233 2.6034 28.9787 2.75017C28.8064 2.82356 28.5958 2.9129 28.3661 3.02458C28.248 3.08201 28.1268 3.13945 27.9959 3.20007C27.9289 3.22879 27.8811 3.27984 27.8332 3.33727C27.7885 3.39471 27.7311 3.43938 27.6769 3.49362C26.793 4.31364 25.6156 5.41126 24.4382 6.50569C23.2609 7.60012 22.0803 8.69774 21.1996 9.52095C21.1422 9.572 21.0943 9.62625 21.0337 9.66773" fill="#3C2052"/>
<path d="M10.474 1.70734C10.5155 1.82859 10.5602 1.95622 10.6049 2.09342C10.6272 2.16362 10.6719 2.21467 10.7229 2.26891C10.774 2.31997 10.8122 2.38059 10.8601 2.44122C11.5748 3.40482 12.5257 4.68751 13.4797 5.97019C14.4306 7.25287 15.3846 8.53874 16.0961 9.49916C16.1408 9.55978 16.1887 9.61722 16.2238 9.67784C16.2557 9.74485 16.2972 9.79909 16.361 9.83738C16.4758 9.92034 16.5875 10.0001 16.6928 10.0735C16.897 10.2235 17.0885 10.3479 17.2416 10.4532C17.5511 10.6574 17.7394 10.7691 17.7394 10.7691C17.7394 10.7691 17.6883 10.5585 17.583 10.2011C17.5288 10.0224 17.465 9.80547 17.3788 9.56617C17.3373 9.44492 17.2927 9.31729 17.248 9.18009C17.2289 9.10989 17.1874 9.05245 17.1331 9.0014C17.0821 8.94716 17.0438 8.88654 16.9991 8.8291C16.2844 7.8655 15.3335 6.58281 14.3795 5.30013C13.4287 4.01745 12.4746 2.73157 11.7631 1.76797C11.7184 1.70734 11.6738 1.64991 11.6387 1.58928C11.6036 1.52547 11.5653 1.46804 11.5046 1.42656C11.3898 1.3436 11.2781 1.26383 11.1728 1.19044C10.9686 1.03728 10.7772 0.912845 10.624 0.810741C10.3145 0.606532 10.123 0.498047 10.123 0.498047C10.123 0.498047 10.1677 0.711827 10.2762 1.06919C10.3304 1.24787 10.3943 1.46484 10.4772 1.70415" fill="#3C2052"/>
<path d="M17.6551 18.3001C17.537 19.1041 17.419 19.905 17.3328 20.5081C17.3265 20.5463 17.3265 20.5814 17.3105 20.6165C17.2914 20.6516 17.2882 20.6867 17.3105 20.725C17.3424 20.7984 17.3743 20.8718 17.403 20.9388C17.4605 21.0728 17.5211 21.1909 17.569 21.2866C17.6136 21.3823 17.6647 21.4621 17.6902 21.5131C17.7189 21.5642 17.7349 21.5929 17.7349 21.5929C17.7349 21.5929 17.7572 21.5706 17.8019 21.5291C17.8434 21.4876 17.9136 21.427 17.9869 21.3472C18.0603 21.2675 18.1529 21.1749 18.2454 21.0632C18.2933 21.0058 18.3443 20.9484 18.3954 20.8878C18.4273 20.8558 18.4336 20.8207 18.4241 20.7825C18.4241 20.7442 18.4305 20.7091 18.4336 20.6708C18.523 20.0677 18.641 19.2637 18.7559 18.4628C18.874 17.6587 18.992 16.8578 19.0782 16.2548C19.0846 16.2165 19.0877 16.1814 19.1005 16.1463C19.1165 16.1112 19.126 16.0761 19.1069 16.0378C19.0718 15.9644 19.0431 15.891 19.0112 15.824C18.9537 15.69 18.8931 15.5751 18.8421 15.4762C18.7974 15.3805 18.7431 15.3007 18.7144 15.2497C18.6825 15.1954 18.6666 15.1699 18.6666 15.1699C18.6666 15.1699 18.641 15.1923 18.5996 15.2337C18.5549 15.2752 18.4847 15.3358 18.4113 15.4156C18.3347 15.4954 18.2422 15.5879 18.1497 15.6996C18.1018 15.757 18.0508 15.8145 17.9997 15.8783C17.971 15.9102 17.971 15.9453 17.9742 15.9836C17.9774 16.0219 17.9678 16.057 17.9646 16.0952C17.8753 16.6983 17.7604 17.4992 17.6423 18.3032" fill="#3C2052"/>
<path d="M19.1939 8.68204C19.2418 8.87667 19.2928 9.04578 19.3375 9.18937C19.4236 9.47015 19.4874 9.63288 19.4874 9.63288C19.4874 9.63288 19.5959 9.49568 19.7587 9.24999C19.8384 9.12874 19.9405 8.97878 20.0394 8.80648C20.0905 8.72033 20.1447 8.6278 20.2054 8.53207C20.2405 8.48421 20.2468 8.42997 20.2437 8.37573C20.2437 8.32148 20.2564 8.26724 20.2628 8.20981C20.3968 7.30682 20.5723 6.10391 20.7478 4.89781C20.9233 3.6917 21.0988 2.48879 21.2328 1.5858C21.2424 1.52837 21.2456 1.47413 21.2615 1.41988C21.2806 1.36564 21.2934 1.31459 21.2775 1.26035C21.2487 1.15186 21.2232 1.04657 21.1977 0.950844C21.1498 0.756208 21.0956 0.583908 21.0541 0.443515C20.968 0.162728 20.901 0 20.901 0C20.901 0 20.7893 0.137202 20.6265 0.38289C20.5436 0.504139 20.4447 0.654104 20.3426 0.826405C20.2915 0.912555 20.2373 1.00509 20.1766 1.10081C20.1447 1.14867 20.1416 1.20291 20.1447 1.25716C20.1447 1.31459 20.1352 1.36883 20.1256 1.42308C19.9948 2.32606 19.8161 3.53216 19.6406 4.73508C19.4651 5.93799 19.2864 7.14409 19.1556 8.04708C19.146 8.10451 19.1428 8.15875 19.1269 8.213C19.1077 8.26724 19.1014 8.31829 19.1173 8.37253C19.146 8.48102 19.1716 8.58632 19.1971 8.68204" fill="#3C2052"/>
<path d="M21.7694 13.4056C21.8077 13.4343 21.8492 13.4343 21.8907 13.4279C21.9322 13.4215 21.9768 13.4279 22.0183 13.4343C22.7139 13.5045 23.6424 13.5938 24.5709 13.6864C25.4994 13.7789 26.4279 13.8714 27.1235 13.9384C27.165 13.9448 27.2097 13.9448 27.2511 13.9544C27.2926 13.9703 27.3341 13.9735 27.3756 13.9544C27.4585 13.9193 27.5383 13.8842 27.6117 13.8523C27.7617 13.7916 27.8925 13.7278 27.9978 13.6768C28.2147 13.5715 28.336 13.4981 28.336 13.4981C28.336 13.4981 28.2307 13.3992 28.0393 13.2556C27.9435 13.1822 27.8287 13.0961 27.6947 13.0067C27.6276 12.9621 27.5575 12.9142 27.4809 12.8599C27.4426 12.8312 27.4043 12.8248 27.3596 12.8344C27.3181 12.8376 27.2735 12.828 27.232 12.8248C26.5364 12.7547 25.6079 12.6653 24.6794 12.5728C23.7509 12.4802 22.8224 12.3877 22.1268 12.3207C22.0853 12.3143 22.0406 12.3143 21.9992 12.3016C21.9577 12.2856 21.9194 12.2792 21.8779 12.3016C21.795 12.3367 21.7152 12.3718 21.6418 12.4037C21.4918 12.4643 21.361 12.5281 21.2557 12.5824C21.0387 12.6876 20.9143 12.7674 20.9143 12.7674C20.9143 12.7674 21.0196 12.8695 21.211 13.0163C21.3068 13.0897 21.4216 13.179 21.5556 13.2684C21.6227 13.313 21.6929 13.3641 21.7694 13.4151" fill="#3C2052"/>
<path d="M4.74963 11.6019C4.8645 11.653 4.98575 11.7072 5.11338 11.7614C5.17719 11.7902 5.2442 11.7933 5.31439 11.7902C5.38459 11.7902 5.45479 11.7997 5.52817 11.8029C6.68961 11.9178 8.24031 12.0709 9.79102 12.2241C11.3417 12.3773 12.8924 12.5304 14.0539 12.6453C14.1273 12.6549 14.1974 12.6549 14.2676 12.6708C14.3347 12.69 14.4048 12.6963 14.4719 12.6772C14.6091 12.6485 14.7399 12.6198 14.8611 12.591C15.1036 12.54 15.3174 12.4826 15.4929 12.4379C15.8439 12.3485 16.0481 12.2815 16.0481 12.2815C16.0481 12.2815 15.863 12.1762 15.5344 12.0167C15.3716 11.9369 15.1738 11.8412 14.9441 11.7423C14.8292 11.6912 14.708 11.637 14.5803 11.5828C14.5165 11.5509 14.4495 11.5413 14.3793 11.5477C14.3091 11.5477 14.2389 11.5381 14.1655 11.5317C13.0041 11.4168 11.4534 11.2637 9.9027 11.1105C8.35199 10.9574 6.80128 10.8042 5.63985 10.6893C5.56646 10.6798 5.49627 10.6798 5.42607 10.6606C5.35587 10.6415 5.28887 10.6319 5.22186 10.6511C5.08466 10.6798 4.95384 10.7085 4.83259 10.7372C4.59009 10.7883 4.37631 10.8457 4.20082 10.8904C3.84984 10.9829 3.64563 11.0563 3.64563 11.0563C3.64563 11.0563 3.83069 11.1648 4.15615 11.3243C4.31888 11.4041 4.5199 11.503 4.74644 11.5987" fill="#3C2052"/>
<path d="M3.02467 20.7236C3.14911 20.6981 3.28312 20.6694 3.42351 20.6407C3.4969 20.6311 3.55752 20.596 3.61496 20.5513C3.67239 20.5099 3.7394 20.4779 3.80321 20.4397C4.85297 19.8494 6.25052 19.0644 7.65126 18.2795C9.04881 17.4946 10.4495 16.7065 11.4993 16.1194C11.5663 16.0843 11.6269 16.0428 11.6939 16.0173C11.7609 15.9917 11.8248 15.9598 11.8726 15.9056C11.9715 15.8003 12.0641 15.7014 12.1502 15.6057C12.3257 15.4206 12.4757 15.2483 12.5969 15.1079C12.8426 14.8271 12.9702 14.6484 12.9702 14.6484C12.9702 14.6484 12.7533 14.6676 12.3831 14.7282C12.1981 14.7569 11.9747 14.7952 11.7258 14.8495C11.6014 14.875 11.4674 14.9037 11.3238 14.9324C11.2536 14.9452 11.193 14.9835 11.1356 15.0281C11.0781 15.0728 11.0111 15.1047 10.9473 15.143C9.89755 15.7333 8.5 16.5182 7.09926 17.3031C5.70171 18.0881 4.30097 18.8762 3.25121 19.4633C3.1842 19.4984 3.12358 19.5399 3.05657 19.5686C2.98638 19.5941 2.92575 19.6292 2.88108 19.6866C2.78217 19.7919 2.68964 19.8908 2.60349 19.9834C2.428 20.1684 2.27803 20.3407 2.15678 20.4811C1.91109 20.7619 1.78027 20.9374 1.78027 20.9374C1.78027 20.9374 1.99724 20.9151 2.36418 20.8513C2.54924 20.8194 2.7726 20.7843 3.02148 20.73" fill="#3C2052"/>
<path d="M20.2603 14.0195C20.2603 14.0195 20.3432 14.1823 20.5091 14.4375C20.5921 14.5651 20.691 14.7215 20.8123 14.8906C20.8729 14.9768 20.9367 15.0661 21.0037 15.1618C21.0356 15.2097 21.0867 15.2384 21.1409 15.2607C21.1951 15.2831 21.2398 15.3182 21.2909 15.3501C22.0886 15.867 23.1543 16.553 24.2168 17.239C25.2825 17.925 26.345 18.6142 27.1459 19.1279C27.1938 19.1598 27.248 19.1885 27.2895 19.2268C27.331 19.2683 27.3788 19.297 27.4363 19.3034C27.5511 19.3258 27.6596 19.3449 27.7617 19.3672C27.9627 19.4087 28.1478 19.4342 28.2978 19.4566C28.5977 19.5012 28.7796 19.514 28.7796 19.514C28.7796 19.514 28.6934 19.3545 28.5275 19.0992C28.4445 18.9716 28.3456 18.8152 28.2244 18.6493C28.1637 18.5632 28.0999 18.4738 28.0329 18.3781C28.001 18.327 27.9563 18.2951 27.9021 18.276C27.8511 18.2505 27.8032 18.2154 27.7521 18.1867C26.9545 17.6729 25.8887 16.9837 24.823 16.2977C23.7573 15.6117 22.6948 14.9225 21.8971 14.4088C21.8461 14.3769 21.795 14.3482 21.7535 14.3099C21.712 14.2684 21.6674 14.2365 21.6099 14.2269C21.4951 14.2046 21.3866 14.1855 21.2845 14.1631C21.0835 14.1216 20.8984 14.0961 20.7484 14.0738C20.4453 14.0291 20.2634 14.0195 20.2634 14.0195" fill="#3C2052"/>
<path d="M25.2544 21.5321C25.2066 21.4364 25.1555 21.3439 25.0885 21.2418C25.0566 21.1907 25.0247 21.1365 24.996 21.1046L24.897 20.9738C24.5748 20.5781 24.1632 20.3516 23.7771 20.2144C23.5825 20.1474 23.3942 20.0995 23.2123 20.0708C23.0305 20.0421 22.8613 20.0293 22.7018 20.0293C22.5455 20.0293 22.3987 20.0421 22.2742 20.0644C22.1466 20.0835 22.0413 20.1123 21.9488 20.141C21.8595 20.1665 21.7956 20.1984 21.751 20.2176C21.7063 20.2399 21.684 20.2495 21.684 20.2495C21.684 20.2495 21.7095 20.259 21.7542 20.275C21.802 20.2846 21.869 20.3101 21.9488 20.3388C22.0286 20.3643 22.1275 20.4058 22.2328 20.4473C22.3413 20.492 22.4593 20.5398 22.5869 20.6004C22.839 20.7185 23.123 20.8589 23.391 21.0312C23.659 21.2003 23.9143 21.4045 24.077 21.6151L24.1504 21.7204C24.1823 21.7619 24.2015 21.7906 24.2206 21.8225C24.2621 21.8799 24.3036 21.9597 24.3482 22.0267C24.4312 22.1703 24.5173 22.3139 24.5907 22.4607C24.6673 22.6042 24.7375 22.751 24.8013 22.8882C24.8683 23.0286 24.9258 23.1626 24.9768 23.2902C25.0311 23.4179 25.0757 23.5359 25.114 23.6444C25.1523 23.7529 25.1874 23.8518 25.2097 23.9348C25.2353 24.0177 25.2512 24.0847 25.264 24.1326C25.2767 24.1805 25.2831 24.206 25.2831 24.206C25.2831 24.206 25.2991 24.1837 25.3246 24.1422C25.3501 24.1007 25.3916 24.0369 25.4267 23.9507C25.5033 23.7816 25.5799 23.5168 25.599 23.1977C25.6086 23.0382 25.6054 22.8659 25.5863 22.684C25.5671 22.5021 25.5288 22.3139 25.4746 22.1192C25.4203 21.9278 25.3438 21.7332 25.2512 21.5385" fill="#3C2052"/>
<path d="M42.9495 29.3972C42.9942 29.4387 43.0452 29.4802 43.0963 29.5217C43.2016 29.6078 43.3132 29.7035 43.4313 29.8216C43.4887 29.879 43.5557 29.9301 43.6164 29.9939C43.6738 30.0577 43.7344 30.1215 43.7982 30.1885C43.862 30.2523 43.9195 30.3225 43.9769 30.3959C44.0343 30.4725 44.1013 30.5363 44.1556 30.6161C44.2098 30.6959 44.2641 30.7756 44.3247 30.8522C44.3789 30.932 44.4236 31.0213 44.4779 31.1043C44.5353 31.184 44.5736 31.2766 44.6182 31.3659C44.6597 31.4553 44.714 31.5414 44.7427 31.6339L44.8544 31.9115C44.8799 32.0073 44.9118 32.0998 44.9437 32.1955C44.9916 32.387 45.0458 32.5752 45.0713 32.7667C45.0873 32.8624 45.0969 32.9549 45.116 33.0474C45.1256 33.14 45.132 33.2325 45.1383 33.3219C45.1639 33.5037 45.1511 33.676 45.1607 33.8419C45.1702 34.0079 45.1511 34.1578 45.1543 34.2982C45.1543 34.4386 45.1415 34.5599 45.132 34.662C45.116 34.8662 45.1192 34.9938 45.1192 34.9938C45.1192 34.9938 45.2022 34.9045 45.3298 34.7354C45.3936 34.6492 45.4766 34.5471 45.5404 34.4131C45.6042 34.2823 45.6999 34.1355 45.7574 33.96C45.8148 33.7845 45.8945 33.5931 45.9233 33.3793C45.9456 33.274 45.9616 33.1623 45.9807 33.0506C45.9903 32.9358 45.9903 32.8209 45.9967 32.6997C46.0062 32.5784 45.9935 32.4572 45.9807 32.3359C45.9647 32.2147 45.9647 32.087 45.9296 31.9626C45.9009 31.8413 45.8722 31.7137 45.8403 31.5893C45.7988 31.468 45.751 31.3468 45.7031 31.2255C45.6584 31.1043 45.5882 30.9926 45.5308 30.8777C45.4734 30.7629 45.4032 30.6544 45.3266 30.5523C45.1862 30.3417 45.0107 30.1598 44.8384 29.9939C44.7555 29.9077 44.6565 29.8407 44.5672 29.7705C44.4779 29.7003 44.3885 29.6301 44.2928 29.5791C44.2003 29.5249 44.1077 29.4738 44.0184 29.4228C43.9291 29.3781 43.8365 29.343 43.7504 29.3079C43.661 29.276 43.5844 29.2377 43.5015 29.2185C43.4185 29.1962 43.3388 29.1771 43.2622 29.1611C43.1888 29.1452 43.1218 29.126 43.058 29.1164C42.9942 29.1101 42.9367 29.1069 42.8857 29.1037C42.6783 29.0909 42.5538 29.0941 42.5538 29.0941C42.5538 29.0941 42.6464 29.1771 42.8155 29.2983C42.857 29.3302 42.9048 29.3621 42.9527 29.4004" fill="#3C2052"/>
<path d="M44.3849 61.0493C44.4009 61.1099 44.4264 61.1674 44.4456 61.2344C44.4902 61.362 44.5381 61.5024 44.5764 61.6619C44.5955 61.7417 44.6274 61.8183 44.6434 61.9044C44.6625 61.9906 44.6785 62.0767 44.6976 62.1661C44.72 62.2522 44.7327 62.3448 44.7423 62.4373C44.7519 62.5298 44.7774 62.6224 44.7806 62.7181C44.7838 62.8138 44.7933 62.9095 44.8029 63.0052C44.8093 63.1042 44.7997 63.2031 44.8029 63.2988C44.8093 63.3977 44.7933 63.4966 44.787 63.5955C44.7774 63.6945 44.7774 63.7934 44.7551 63.8923L44.7104 64.189C44.6817 64.2847 44.6625 64.3805 44.637 64.4762C44.5796 64.6644 44.5285 64.8559 44.4519 65.0314C44.4168 65.1207 44.3785 65.2069 44.3466 65.2962C44.3052 65.3792 44.2637 65.4621 44.2222 65.5451C44.152 65.7142 44.0499 65.8546 43.9733 66.0014C43.8967 66.1481 43.8042 66.2662 43.7308 66.3874C43.6574 66.5055 43.5841 66.6044 43.5266 66.6874C43.4086 66.8533 43.3416 66.9618 43.3416 66.9618C43.3416 66.9618 43.4564 66.9299 43.6542 66.8501C43.7532 66.8086 43.8776 66.764 43.9988 66.6842C44.1233 66.6044 44.2796 66.531 44.42 66.4098C44.5604 66.2885 44.7263 66.1673 44.8635 66.0014C44.9369 65.9216 45.0071 65.8354 45.0805 65.7493C45.1475 65.6568 45.2081 65.5578 45.2751 65.4557C45.3453 65.36 45.3964 65.2483 45.4506 65.1367C45.5017 65.025 45.5655 64.9133 45.6006 64.7921C45.6389 64.6708 45.6804 64.5496 45.7155 64.4251C45.7442 64.3007 45.7633 64.1731 45.7889 64.0454C45.8144 63.9178 45.8144 63.787 45.8208 63.6594C45.8303 63.5285 45.8303 63.4009 45.8144 63.2765C45.8016 63.0212 45.7506 62.7755 45.6899 62.5458C45.6612 62.4277 45.6134 62.3192 45.5751 62.2139C45.5336 62.1086 45.4953 62.0033 45.4379 61.9076C45.3836 61.8151 45.3326 61.7226 45.2847 61.6332C45.2305 61.5471 45.1699 61.4705 45.1156 61.3971C45.0582 61.3237 45.0103 61.2503 44.9497 61.1897C44.8891 61.1291 44.8284 61.0717 44.7742 61.0174C44.72 60.9664 44.6721 60.9153 44.621 60.8738C44.57 60.8355 44.5221 60.8036 44.4806 60.7717C44.3115 60.6505 44.2031 60.5898 44.2031 60.5898C44.2031 60.5898 44.2382 60.7079 44.3211 60.8993C44.3403 60.9472 44.3626 61.0015 44.3881 61.0589" fill="#3C2052"/>
<path d="M0.537499 54.9124C0.550262 54.8518 0.559834 54.788 0.569407 54.721C0.588551 54.587 0.614077 54.4434 0.652366 54.2807C0.671511 54.2009 0.681083 54.1179 0.706609 54.035C0.732135 53.952 0.75447 53.8659 0.779996 53.7797C0.802332 53.6904 0.831048 53.6042 0.866147 53.5181C0.901245 53.4319 0.920389 53.3394 0.96506 53.2532C1.00654 53.1671 1.04483 53.0778 1.08312 52.9884C1.1246 52.8991 1.17884 52.8161 1.22032 52.7268C1.2618 52.6374 1.31923 52.5577 1.37348 52.4715C1.42772 52.3886 1.47239 52.2992 1.5394 52.2258L1.71808 51.9865C1.78827 51.9163 1.85209 51.8397 1.9159 51.7664C2.05311 51.6292 2.18712 51.4824 2.33708 51.3611C2.41047 51.3005 2.48386 51.2399 2.55405 51.1761C2.63063 51.1218 2.70721 51.0676 2.77741 51.0165C2.92099 50.9017 3.07415 50.8219 3.21135 50.7294C3.34855 50.6368 3.48895 50.5762 3.607 50.4996C3.72825 50.4294 3.83674 50.3752 3.92927 50.3305C4.11433 50.238 4.21963 50.1742 4.21963 50.1742C4.21963 50.1742 4.10157 50.1486 3.89098 50.1263C3.78568 50.1167 3.65486 50.0976 3.50809 50.1136C3.36131 50.1231 3.18582 50.1199 3.00714 50.1614C2.82846 50.2029 2.62425 50.2316 2.42323 50.3146C2.32113 50.3529 2.21903 50.3911 2.11054 50.4358C2.00844 50.4869 1.90952 50.5443 1.80104 50.6049C1.69255 50.6592 1.59683 50.7326 1.49792 50.8059C1.399 50.8825 1.29052 50.9463 1.20437 51.0421C1.11503 51.1314 1.0193 51.2176 0.929962 51.3101C0.847002 51.409 0.767233 51.5111 0.687465 51.6132C0.604505 51.7153 0.547071 51.8302 0.480066 51.9387C0.41306 52.0503 0.352436 52.162 0.307765 52.2833C0.199279 52.513 0.132274 52.7555 0.0780309 52.9884C0.0493141 53.1033 0.0397419 53.2213 0.0237881 53.3362C0.0110251 53.4511 -0.00492866 53.5596 0.00145285 53.668C0.00145285 53.7765 0.00783435 53.8818 0.00783435 53.9839C0.0174066 54.086 0.0333604 54.1818 0.0493141 54.2743C0.0684586 54.3668 0.0748401 54.453 0.100366 54.5359C0.125892 54.6189 0.151418 54.6955 0.173753 54.7689C0.19928 54.8422 0.215233 54.9061 0.240759 54.9667C0.269476 55.0241 0.295002 55.0752 0.317337 55.1198C0.41306 55.3049 0.476875 55.4102 0.476875 55.4102C0.476875 55.4102 0.49921 55.2889 0.518355 55.0815C0.524736 55.0305 0.527927 54.9731 0.534308 54.9093" fill="#3C2052"/>
<path d="M42.139 55.6943V55.6656C42.4261 55.5922 42.6112 55.3944 42.6112 55.1934C42.6112 54.9796 42.5251 54.8073 42.3942 54.7211C42.2379 54.6222 42.0369 54.5488 41.6061 54.5488C41.1754 54.5488 40.8754 54.6063 40.7478 54.635V56.7409H41.3349V55.9815H41.5487C41.7497 55.9815 41.8646 56.0804 41.8933 56.2974C41.9348 56.4824 41.9794 56.6547 42.0496 56.7409H42.6942C42.6654 56.6707 42.6208 56.5399 42.5665 56.2399C42.4931 55.94 42.3655 55.7677 42.1358 55.6975M41.5519 55.5348H41.3668V55.0338C41.4115 55.0338 41.4976 55.0179 41.5838 55.0179C41.8135 55.0179 41.9411 55.104 41.9411 55.2763C41.9411 55.4327 41.7848 55.5348 41.5551 55.5348" fill="#3C2052"/>
<path d="M43.9137 55.6503C43.9137 54.39 42.9118 53.3594 41.6227 53.3594C40.3337 53.3594 39.3318 54.39 39.3318 55.6503C39.3318 56.9107 40.3496 57.9541 41.6227 57.9541C42.8959 57.9541 43.9137 56.9234 43.9137 55.6503ZM41.6227 57.3989C40.691 57.3989 40.005 56.6267 40.005 55.6663C40.005 54.7059 40.691 53.9337 41.6227 53.9337C42.5544 53.9337 43.2405 54.6931 43.2405 55.6503C43.2405 56.6076 42.5544 57.3989 41.6227 57.3989Z" fill="#3C2052"/>
</svg>
